<?xml version="1.0" standalone="no"?>
<!DOCTYPE svg PUBLIC "-//W3C//DTD SVG 20010904//EN"
 "http://www.w3.org/TR/2001/REC-SVG-20010904/DTD/svg10.dtd">
<svg version="1.0" xmlns="http://www.w3.org/2000/svg"
 width="1000.000000pt" height="1000.000000pt" viewBox="0 0 1000.000000 1000.000000"
 preserveAspectRatio="xMidYMid meet">

<g transform="translate(0.000000,1000.000000) scale(0.100000,-0.100000)"
fill="#3b82f6" stroke="none">
<path d="M4690 9989 c-1190 -71 -2320 -574 -3181 -1417 -283 -276 -463 -493
-674 -812 -432 -651 -694 -1357 -795 -2140 -122 -955 45 -1949 475 -2825 240
-488 535 -903 924 -1298 556 -565 1201 -972 1945 -1226 387 -133 778 -215
1196 -252 179 -16 670 -17 840 -1 1186 111 2236 591 3064 1402 595 582 1015
1255 1269 2035 444 1360 277 2871 -453 4095 -399 669 -952 1241 -1605 1660
-583 375 -1260 631 -1932 731 -332 49 -749 68 -1073 48z m1100 -1918 c712 -45
1229 -260 1661 -691 508 -507 822 -1292 796 -1994 -19 -508 -194 -974 -539
-1427 -118 -156 -237 -291 -252 -287 -7 2 -192 179 -410 394 l-398 392 87 108
c144 181 228 327 289 502 55 157 70 254 70 427 -1 228 -48 422 -154 640 -179
367 -443 607 -792 720 -185 60 -231 65 -718 76 -475 11 -2792 6 -2822 -6 -17
-7 -18 -136 -18 -2521 l0 -2514 -547 2 -548 3 -3 3092 -2 3093 502 3 c1025 7
3634 -2 3798 -12z m320 -2261 l0 -530 -500 -2 -500 -3 1693 -1684 c930 -926
1694 -1687 1695 -1692 2 -5 -384 -9 -887 -9 l-890 0 -433 436 c-238 240 -432
439 -431 444 1 4 -11 20 -27 35 -17 16 -30 26 -30 22 0 -3 -350 343 -777 771
l-778 777 -5 -1240 -5 -1240 -515 0 -515 0 -3 2223 -2 2222 1455 0 1455 0 0
-530z"/>
<path d="M5700 2925 c52 -52 97 -95 100 -95 2 0 -38 43 -90 95 -52 52 -97 95
-100 95 -2 0 38 -43 90 -95z"/>
</g>
</svg>
